# xmcd CD database file
#
# Track frame offsets:
#	187
#	14567
#	25367
#	38112
#	52592
#	67654
#	78474
#	92177
#	104074
#	118442
#	131929
#	143157
#	159299
#	174217
#	184759
#
# Disc length: 2653 seconds
#
# Revision: 1
# Processed by: cddbd v1.5.2PL0 Copyright (c) Steve Scherf et al.
# Submitted via: CDex 1.60beta1-cs1
#
DISCID=c80a5b0f
DTITLE=DANCE HALL CRASHERS - LOCKJAW
DYEAR=1995
DGENRE=Ska Punk
TTITLE0=Shelley
TTITLE1=Don't Wanna Behave
TTITLE2=Queen For A Day
TTITLE3=Flyin
TTITLE4=Good For Nothin
TTITLE5=Buried Alive
TTITLE6=Sticky
TTITLE7=Too Late
TTITLE8=Go
TTITLE9=Enough
TTITLE10=Pictures
TTITLE11=Day Job
TTITLE12=So Sue Us
TTITLE13=We Owe
TTITLE14=Next to you
EXTD=YEAR: 1995
EXTT0=
EXTT1=
EXTT2=
EXTT3=
EXTT4=
EXTT5=
EXTT6=
EXTT7=
EXTT8=
EXTT9=
EXTT10=
EXTT11=
EXTT12=
EXTT13=
EXTT14=
PLAYORDER=
